<svg width="150" height="21" viewBox="0 0 150 21" fill="none" xmlns="http://www.w3.org/2000/svg">
<path fill-rule="evenodd" clip-rule="evenodd" d="M33.3203 2.90186H28.54V0.642578H40.69V2.90186H35.9094V16.148H33.3203V2.90186Z" fill="#C0D6EA"/>
<path fill-rule="evenodd" clip-rule="evenodd" d="M46.3334 7.06592C44.6955 7.06592 43.2572 8.52812 43.2572 11.9836V16.1479H40.8447V4.98382H43.2572V7.11032C43.8548 5.7813 45.3153 4.80664 46.6653 4.80664C47.0859 4.80664 47.5726 4.87323 47.9048 5.00601L47.7718 7.33189C47.3734 7.15471 46.8423 7.06592 46.3334 7.06592Z" fill="#C0D6EA"/>
<path fill-rule="evenodd" clip-rule="evenodd" d="M49.1665 16.1479H51.5786V4.9839H49.1665V16.1479ZM48.8125 1.57278C48.8125 0.686502 49.4766 0 50.3617 0C51.2689 0 51.9552 0.686502 51.9552 1.57278C51.9552 2.43646 51.2689 3.12336 50.3617 3.12336C49.4766 3.12336 48.8125 2.43646 48.8125 1.57278Z" fill="#C0D6EA"/>
<path fill-rule="evenodd" clip-rule="evenodd" d="M62.711 10.5658C62.711 8.35054 61.4271 6.91095 59.4799 6.91095C57.5323 6.91095 56.2489 8.35054 56.2489 10.5658C56.2489 12.7585 57.5323 14.2207 59.4799 14.2207C61.4271 14.2207 62.711 12.7585 62.711 10.5658ZM53.9912 4.98382H56.4037V6.40121C57.0235 5.49314 58.3291 4.80664 59.8783 4.80664C63.1759 4.80664 65.1231 7.1987 65.1231 10.5658C65.1231 13.9326 63.0872 16.325 59.7456 16.325C58.3952 16.325 57.0896 15.7491 56.4037 14.8628V20.1793H53.9912V4.98382Z" fill="#C0D6EA"/>
<path fill-rule="evenodd" clip-rule="evenodd" d="M66.916 16.1474H69.3281V0.464844H66.916V16.1474Z" fill="#C0D6EA"/>
<path fill-rule="evenodd" clip-rule="evenodd" d="M79.5084 9.3035C79.3535 7.79731 78.3576 6.71206 76.587 6.71206C75.06 6.71206 73.9757 7.64233 73.6217 9.3035H79.5084ZM82.0314 11.1422H73.5108C73.7322 13.0694 74.9717 14.2652 76.7419 14.2652C78.2027 14.2652 79.2427 13.5787 79.5306 12.3603L81.81 12.9362C81.2124 15.0849 79.3092 16.3251 76.6979 16.3251C73.1568 16.3251 71.1431 13.5787 71.1431 10.5663C71.1431 7.55354 73.0463 4.80713 76.587 4.80713C80.1721 4.80713 82.0753 7.42076 82.0753 10.1454C82.0753 10.4775 82.0536 10.9429 82.0314 11.1422Z" fill="#C0D6EA"/>
<path fill-rule="evenodd" clip-rule="evenodd" d="M87.6753 0.642578H90.3531L93.6285 13.0912L96.9704 0.642578H99.8253L103.145 13.0912L106.442 0.642578H109.12L104.561 16.148H101.817L98.4088 4.31966L94.9785 16.148H92.2785L87.6753 0.642578Z" fill="#C0D6EA"/>
<path fill-rule="evenodd" clip-rule="evenodd" d="M110.449 0.465332H112.861V6.91143C113.636 5.51583 114.941 4.80713 116.512 4.80713C119.035 4.80713 120.696 6.3795 120.696 8.81636V16.1479H118.283V9.37009C118.283 7.88609 117.354 6.97762 115.849 6.97762C113.99 6.97762 112.861 8.59479 112.861 11.3194V16.1479H110.449V0.465332Z" fill="#C0D6EA"/>
<path fill-rule="evenodd" clip-rule="evenodd" d="M129.747 11.3412V10.8763L127.623 11.1196C125.808 11.319 124.878 11.9837 124.878 12.9584C124.878 13.8443 125.609 14.4646 126.738 14.4646C128.619 14.4646 129.725 13.1578 129.747 11.3412ZM132.116 9.19251V16.1479H129.747V14.4424C129.105 15.572 127.733 16.3251 126.251 16.3251C124.038 16.3251 122.511 14.9299 122.511 13.0246C122.511 10.8319 124.215 9.65785 127.645 9.3035L129.747 9.08193V8.92695C129.747 7.55354 128.796 6.71166 127.335 6.71166C125.985 6.71166 125.034 7.50915 124.878 8.83816L122.71 8.43982C123.064 6.24673 124.967 4.80713 127.335 4.80713C130.168 4.80713 132.116 6.4017 132.116 9.19251Z" fill="#C0D6EA"/>
<path fill-rule="evenodd" clip-rule="evenodd" d="M134.506 16.1474H136.918V0.464844H134.506V16.1474Z" fill="#C0D6EA"/>
<path fill-rule="evenodd" clip-rule="evenodd" d="M147.098 9.3035C146.943 7.79731 145.947 6.71206 144.177 6.71206C142.65 6.71206 141.566 7.64233 141.212 9.3035H147.098ZM149.621 11.1422H141.101C141.322 13.0694 142.562 14.2652 144.332 14.2652C145.793 14.2652 146.833 13.5787 147.12 12.3603L149.4 12.9362C148.802 15.0849 146.899 16.3251 144.288 16.3251C140.747 16.3251 138.733 13.5787 138.733 10.5663C138.733 7.55354 140.636 4.80713 144.177 4.80713C147.762 4.80713 149.665 7.42076 149.665 10.1454C149.665 10.4775 149.643 10.9429 149.621 11.1422Z" fill="#C0D6EA"/>
<path fill-rule="evenodd" clip-rule="evenodd" d="M17.8241 0.466309C15.6024 0.466309 13.8647 1.10787 12.4907 2.12508C13.8441 3.28472 14.8574 4.54246 15.5512 7.17585C17.4647 6.82086 21.3416 5.86948 23.0002 0.466309H17.8241Z" fill="#1877F2"/>
<path fill-rule="evenodd" clip-rule="evenodd" d="M14.0945 6.79854C12.8404 3.24175 9.73566 0.66258 5.60383 0.482287C5.53375 0.472391 0 0.466797 0 0.466797C1.85676 6.72109 8.19229 7.19011 8.19229 7.19011V17.1854H15.7402C15.7402 17.1854 15.3382 10.3261 14.0945 6.79854Z" fill="#1877F2"/>
</svg>
